<svg xmlns="http://www.w3.org/2000/svg" viewBox="0 0 64 64">
  <defs>
    <style>
      .accent { fill: #f47b20; stroke: #f47b20; stroke-width: 0; }
      .stroke { fill: none; stroke: #f47b20; stroke-width: 4; stroke-linecap: round; stroke-linejoin: round; }
    </style>
  </defs>
  <circle class="stroke" cx="28" cy="28" r="20" />
  <path class="stroke" d="M28 14v14l9 5" />
  <path class="accent" d="M42 34c2.8-1 6.3-0.1 8.6 2.2l1.2 1.2c1.2 1.2 1.4 3.1 0.3 4.4l-3.7 4.4c-0.6 0.7-1.6 1-2.5 0.7l-2.4-0.8-7.5 8.6c-0.7 0.8-1.9 0.9-2.7 0.1l-2.2-2.2c-0.8-0.8-0.7-2 0.1-2.7l8.6-7.5-0.8-2.4c-0.3-0.9 0-1.9 0.7-2.5l4.4-3.7c1.3-1.1 3.3-0.9 4.4 0.3l0.3 0.3-5.8-1.8z" />
  <path class="accent" d="M18 50.5c-2.9 0-5.8-1.1-8-3.3-4.4-4.4-4.4-11.6 0-16 1.1-1.1 2.3-1.8 3.6-2.4 0.7-0.3 1.5 0 1.8 0.7s0 1.5-0.7 1.8c-1 0.4-1.9 1-2.7 1.8-3.1 3.1-3.1 8.2 0 11.3 3.1 3.1 8.2 3.1 11.3 0 0.8-0.8 1.4-1.7 1.8-2.7 0.3-0.7 1.1-1 1.8-0.7 0.7 0.3 1 1.1 0.7 1.8-0.6 1.3-1.3 2.6-2.4 3.6-2.2 2.2-5.1 3.3-8 3.3z" opacity=".7" />
</svg>

